<svg id="Fixing_sizes" data-name="Fixing sizes" xmlns="http://www.w3.org/2000/svg" xmlns:xlink="http://www.w3.org/1999/xlink" viewBox="0 0 29.7 29.7"><defs><style>.cls-1{fill:url(#linear-gradient);}.cls-2{fill:url(#linear-gradient-2);}.cls-3{fill:#2f2f2f;}.cls-4{fill:#757f3f;}.cls-5{fill:#bdcf46;}</style><linearGradient id="linear-gradient" x1="1028.6" y1="2565.25" x2="1053.34" y2="2543.96" gradientTransform="matrix(0.56, 0, 0, -0.57, -578.48, 1458.67)" gradientUnits="userSpaceOnUse"><stop offset="0" stop-color="#5a9fd4"/><stop offset="1" stop-color="#306998"/></linearGradient><linearGradient id="linear-gradient-2" x1="1062.76" y1="2531.03" x2="1053.83" y2="2543.66" gradientTransform="matrix(0.56, 0, 0, -0.57, -578.48, 1458.67)" gradientUnits="userSpaceOnUse"><stop offset="0" stop-color="#ffd43b"/><stop offset="1" stop-color="#ffe873"/></linearGradient></defs><title>_02_languages logos [Recovered]</title><g id="g2303"><path id="path1948" class="cls-1" d="M13.17.86a17.77,17.77,0,0,0-3,.25C7.6,1.56,7.13,2.52,7.13,4.29V6.62H13.3v.91H4.94a3.8,3.8,0,0,0-3.8,3.08,11.37,11.37,0,0,0,0,6.18c.43,1.8,1.46,3.08,3.23,3.08H6.44V17.07a3.91,3.91,0,0,1,3.84-3.82h6.1a3.1,3.1,0,0,0,3.09-3.12V4.29a3.43,3.43,0,0,0-3.09-3.19A19.41,19.41,0,0,0,13.17.86ZM9.77,2.74A1.17,1.17,0,1,1,8.62,3.91,1.16,1.16,0,0,1,9.77,2.74Z"/><path id="path1950" class="cls-2" d="M20.16,7.53V10a3.93,3.93,0,0,1-3.83,3.89H10.22A3.14,3.14,0,0,0,7.13,17v5.84c0,1.66,1.46,2.64,3.09,3.12a10.41,10.41,0,0,0,6.17,0c1.56-.45,3.09-1.35,3.09-3.12V20.56H13.3v-.69h9.15c1.77,0,2.44-1.23,3.05-3.08a10.4,10.4,0,0,0,0-6.18c-.44-1.76-1.28-3.08-3.05-3.08ZM16.67,22.2a1.17,1.17,0,1,1-1.15,1.16A1.16,1.16,0,0,1,16.67,22.2Z"/></g><path class="cls-3" d="M15.42,16.43s.39-.23.61-.32l3.38,1.24,5.47.15s.41.43.53.57l1,2.85.8.32s.18.55.24.76l-.17,1.31-7.93,2L13,23.72l0-3.91,1.95-2.54Z"/><path class="cls-4" d="M20.45,19.74c0,.77-.06,3,0,4.26a6.63,6.63,0,0,0,.84,0c.41,0,.84-.12,1.25-.2l.26-.05A9.41,9.41,0,0,0,24,23.4a8.67,8.67,0,0,0,1.84-.81,9.9,9.9,0,0,0-1.46-3A19.5,19.5,0,0,0,20.45,19.74Z"/><path class="cls-4" d="M24.9,19.27a10.49,10.49,0,0,1,1.46,2.92,3.57,3.57,0,0,0,.84-1,10.79,10.79,0,0,0-.75-1.64,9.66,9.66,0,0,0-1-1.49A6.84,6.84,0,0,1,24.9,19.27Z"/><path class="cls-4" d="M16.2,17.17a22.46,22.46,0,0,1,4,1.94A19.8,19.8,0,0,1,24.32,19a5.08,5.08,0,0,0,.56-1.46l-.07-.07A7.34,7.34,0,0,0,22,16a8.84,8.84,0,0,0-4.36-.38,6.67,6.67,0,0,0-1.66.53Z"/><path class="cls-4" d="M27.44,22a4.68,4.68,0,0,1-1.06,1l0,0a8.84,8.84,0,0,1-2.19,1,9.87,9.87,0,0,1-1.28.33l-.26.05c-.43.08-.87.17-1.31.21-.26,0-.53,0-.8,0a2.51,2.51,0,0,1-2.2-1,4,4,0,0,0-.78-.82l-.12-.09a1.87,1.87,0,0,0-.68-.41l0-.65a2.06,2.06,0,0,1,1.07.55l.11.08a4.59,4.59,0,0,1,.91,1,1.63,1.63,0,0,0,.91.63c0-1.37,0-3.65,0-4.29a22.66,22.66,0,0,0-3.89-1.86A10,10,0,0,0,14.53,19a.32.32,0,0,1-.23.1.32.32,0,0,1-.23-.09.32.32,0,0,1,0-.46,10.18,10.18,0,0,1,1.49-1.3l-.13-.79a7.91,7.91,0,0,0-2.81,2.83,4,4,0,0,0-.25,3.8,3.63,3.63,0,0,0,1,1.36,8.6,8.6,0,0,0,1.13.56,9.73,9.73,0,0,0,1,.43c.32.09.64.2,1,.27s.66.1,1,.16a5.31,5.31,0,0,0,.87.11,17.92,17.92,0,0,0,4.48-.26,15.49,15.49,0,0,0,2.62-.86,8.88,8.88,0,0,0,1.23-.65c.32-.2.74-.4.9-.76a1.91,1.91,0,0,0-.07-1.22Z"/><path class="cls-5" d="M13.88,25.64a1.87,1.87,0,0,0-.65-.16,3.83,3.83,0,0,0-1.17-.09c-.33.06-.36.14-.47.45-.17.48-.65,1.9-.27,2.35a1,1,0,0,0,.44.19,5.35,5.35,0,0,0,1.19.17,3,3,0,0,0,1-.13c.24-.07.35-.13.37-.4a10.39,10.39,0,0,0-.14-1.72C14.15,25.92,14.06,25.74,13.88,25.64Z"/><path class="cls-5" d="M27.09,23.92l-.42.26a9.22,9.22,0,0,1-1.23.65,15.49,15.49,0,0,1-2.62.86,17.92,17.92,0,0,1-4.48.26,5.27,5.27,0,0,1-.87-.11l-.24,0,.08.84a6.49,6.49,0,0,0,.8,0c-.1,1-.13,2,.12,2.23a1.22,1.22,0,0,0,.5.13,7.26,7.26,0,0,0,1.31.05,3.91,3.91,0,0,0,1.08-.19c.26-.08.37-.14.37-.38s-.11-1.29-.21-2.13a13.06,13.06,0,0,0,3.23-.81c0,.34,0,.63,0,.69a.9.9,0,0,0,.19.73c.57.5,2,.21,2.64,0,.49-.16.34-.73.24-1.06S27.31,24.65,27.09,23.92Z"/><path class="cls-5" d="M28.65,20.45c-.26-.24-.68.07-.91.19l-.63.33a10,10,0,0,1,.39,1.23c0,.19.1.39.13.6l0,0a3.41,3.41,0,0,0,.22-.27,11.39,11.39,0,0,0,.69-1.2C28.66,21.11,28.85,20.64,28.65,20.45Z"/><path class="cls-5" d="M17.29,26.64h-.52A16.45,16.45,0,0,1,13,26.33a4.34,4.34,0,0,1-2.57-7.19,4,4,0,0,1,3.65-.67,4.86,4.86,0,0,1,2.78,2.74A11.62,11.62,0,0,1,17.78,24c0,.16.31,2.52,0,2.57Z"/><path class="cls-3" d="M13.93,20.33a.79.79,0,1,1-.54.9A.74.74,0,0,1,13.93,20.33Z"/><path class="cls-3" d="M10.5,20.89a.69.69,0,1,1,1.33.34.69.69,0,1,1-1.33-.34Z"/><path class="cls-3" d="M12.94,22.74c-.17.09-.32.19-.52.12a1.2,1.2,0,0,1-.33-.15l-.23-.15-.11-.08a.2.2,0,0,0-.11-.05s-.13,0-.16,0,.06.4.17.5a2.22,2.22,0,0,0,.6.43.72.72,0,0,0,.63.09,4.35,4.35,0,0,0,.66-.46c.14-.11.45-.29.4-.5s-.21-.12-.33-.08a2.58,2.58,0,0,0-.41.19Z"/></svg>